<?xml version="1.0" standalone="no"?><!DOCTYPE svg PUBLIC "-//W3C//DTD SVG 1.1//EN" "http://www.w3.org/Graphics/SVG/1.1/DTD/svg11.dtd"><svg t="1703852025456" class="icon" viewBox="0 0 1024 1024" version="1.1" xmlns="http://www.w3.org/2000/svg" p-id="11369" xmlns:xlink="http://www.w3.org/1999/xlink" width="200" height="200"><path d="M892.017778 0H103.537778C62.236444 0 28.444444 32.938667 28.444444 73.159111v877.681778C28.444444 991.061333 62.236444 1024 103.537778 1024h788.48c41.301333 0 75.093333-32.938667 75.093333-73.159111V73.159111C967.111111 32.938667 933.319111 0 892.017778 0zM497.777778 170.666667a213.333333 213.333333 0 1 1 0 426.666666 213.333333 213.333333 0 0 1 0-426.666666z m261.347555 725.333333H236.430222c-20.48 0-37.319111-19.228444-37.319111-42.666667s16.782222-42.666667 37.319111-42.666666h522.695111c20.48 0 37.319111 19.228444 37.319111 42.666666s-16.782222 42.666667-37.319111 42.666667z" fill="#dbdbdb" p-id="11370"></path><path d="M425.415111 420.067556l-12.288 74.752a14.563556 14.563556 0 0 0 21.390222 15.132444l63.146667-34.702222 63.203556 35.100444A15.473778 15.473778 0 0 0 567.751111 512h0.170667a14.563556 14.563556 0 0 0 13.767111-19.171556L570.026667 420.408889l51.655111-52.792889a14.449778 14.449778 0 0 0 3.413333-14.791111 14.449778 14.449778 0 0 0-11.605333-9.784889l-70.656-10.808889-31.573334-67.811555a14.620444 14.620444 0 0 0-26.396444 0l-31.857778 67.527111-70.826666 10.638222a14.449778 14.449778 0 0 0-11.548445 9.784889 14.449778 14.449778 0 0 0 3.356445 14.791111l51.484444 52.963555z" fill="#dbdbdb" p-id="11371"></path></svg>